<?xml version="1.0" encoding="utf-8"?>
<!-- Svg Vector Icons : http://www.onlinewebfonts.com/icon -->
<!DOCTYPE svg PUBLIC "-//W3C//DTD SVG 1.1//EN" "http://www.w3.org/Graphics/SVG/1.1/DTD/svg11.dtd">
<svg version="1.1" xmlns="http://www.w3.org/2000/svg" xmlns:xlink="http://www.w3.org/1999/xlink" x="0px" y="0px" viewBox="0 0 256 256" enable-background="new 0 0 256 256" xml:space="preserve">
<metadata> Svg Vector Icons : http://www.onlinewebfonts.com/icon </metadata>
<g><g><path fill="#000000" d="M143.2,74.1c-2.7-1.6-6.2-0.7-7.8,2l-30.1,51.4c-1.6,2.7-0.7,6.2,2,7.8c0.9,0.5,1.9,0.8,2.9,0.8c2,0,3.9-1,4.9-2.8l30.1-51.4C146.8,79.1,145.9,75.7,143.2,74.1z"/><path fill="#000000" d="M84.6,70.2c-2.5-2-6-1.5-8,0.9l-23.6,29.6c-1.6,2-1.7,5,0,7l23.6,30.3c1.1,1.4,2.8,2.2,4.5,2.2c1.2,0,2.5-0.4,3.5-1.2c2.5-1.9,2.9-5.5,1-8l-20.9-26.8l20.8-26.1C87.4,75.8,87,72.2,84.6,70.2z"/><path fill="#000000" d="M179.6,71.2c-1.9-2.5-5.5-2.9-8-1c-2.5,1.9-2.9,5.5-1,8l20.9,26.8L170.7,131c-1.9,2.5-1.5,6,0.9,8c1.1,0.8,2.3,1.2,3.5,1.2c1.7,0,3.3-0.7,4.5-2.1l23.6-29.6c1.6-2,1.7-5,0-7L179.6,71.2z"/><path fill="#000000" d="M228,22.6H28c-9.9,0-18,8.5-18,18.9v126.2c0,10.4,8.1,18.9,18,18.9h75.2V222H81.5c-3.1,0-5.7,2.6-5.7,5.7s2.6,5.7,5.7,5.7h93.1c3.1,0,5.7-2.6,5.7-5.7s-2.6-5.7-5.7-5.7h-21.7v-35.4H228c9.9,0,18-8.5,18-18.9V41.6C246,31.1,237.9,22.6,228,22.6z M141.5,222h-27v-35.4h27V222z M234.2,167.7c0,3.9-2.8,7.1-6.2,7.1H28c-3.4,0-6.2-3.2-6.2-7.1V41.6c0-3.9,2.8-7.1,6.2-7.1h200c3.4,0,6.2,3.2,6.2,7.1L234.2,167.7L234.2,167.7z"/></g></g>
</svg>